<mxfile host="65bd71144e">
    <diagram id="jfAJ1ncJP7RUKDbPUa3P" name="Page-1">
        <mxGraphModel dx="1603" dy="893" grid="0" gridSize="10" guides="1" tooltips="1" connect="1" arrows="1" fold="1" page="1" pageScale="1" pageWidth="1100" pageHeight="850" math="0" shadow="0">
            <root>
                <mxCell id="0"/>
                <mxCell id="1" parent="0"/>
                <mxCell id="2" value="&lt;h1 style=&quot;margin-top: 0px;&quot;&gt;WorkFlow of Functions&lt;/h1&gt;&lt;p&gt;Below is the structured workflow of the&amp;nbsp;function, broken down into &lt;strong data-end=&quot;180&quot; data-start=&quot;160&quot;&gt;sequential steps&lt;/strong&gt;, showing the dependencies and logical flow of functions.&lt;br&gt;&lt;/p&gt;" style="text;html=1;whiteSpace=wrap;overflow=hidden;rounded=0;" vertex="1" parent="1">
                    <mxGeometry x="34" y="47" width="351" height="120" as="geometry"/>
                </mxCell>
                <mxCell id="11" style="edgeStyle=none;html=1;entryX=0.5;entryY=0;entryDx=0;entryDy=0;" edge="1" parent="1" source="3" target="5">
                    <mxGeometry relative="1" as="geometry"/>
                </mxCell>
                <mxCell id="3" value="unify_tidybuilding" style="rounded=0;whiteSpace=wrap;html=1;" vertex="1" parent="1">
                    <mxGeometry x="54" y="179" width="120" height="25" as="geometry"/>
                </mxCell>
                <mxCell id="12" style="edgeStyle=none;html=1;entryX=0.5;entryY=0;entryDx=0;entryDy=0;" edge="1" parent="1" source="5" target="6">
                    <mxGeometry relative="1" as="geometry"/>
                </mxCell>
                <mxCell id="5" value="&lt;div&gt;&lt;span&gt;&lt;font style=&quot;color: rgb(0, 0, 0);&quot;&gt;check_land_use&lt;/font&gt;&lt;/span&gt;&lt;/div&gt;&lt;div&gt;&lt;font style=&quot;color: rgb(0, 0, 0);&quot;&gt;&lt;span style=&quot;font-family: monospace; font-size: 0px; text-align: start; text-wrap: nowrap;&quot;&gt;%3CmxGraphModel%3E%3Croot%3E%3CmxCell%20id%3D%220%22%2F%3E%3CmxCell%20id%3D%221%22%20parent%3D%220%22%2F%3E%3CmxCell%20id%3D%222%22%20value%3D%22unify_tidybuilding%22%20style%3D%22rounded%3D0%3BwhiteSpace%3Dwrap%3Bhtml%3D1%3B%22%20vertex%3D%221%22%20parent%3D%221%22%3E%3CmxGeometry%20x%3D%2234%22%20y%3D%22250%22%20width%3D%22120%22%20height%3D%2225%22%20as%3D%22geometry%22%2F%3E%3C%2FmxCell%3E%3C%2Froot%3E%3C%2FmxGraphModel%&lt;/span&gt;&lt;/font&gt;&lt;span style=&quot;color: rgb(63, 63, 63); background-color: transparent;&quot;&gt;check_fl_area&lt;/span&gt;&lt;br&gt;&lt;/div&gt;&lt;div&gt;&lt;span style=&quot;color: rgb(63, 63, 63); background-color: transparent;&quot;&gt;&lt;span style=&quot;color: rgb(63, 63, 63);&quot;&gt;check_height&lt;/span&gt;&lt;br&gt;&lt;/span&gt;&lt;/div&gt;&lt;div&gt;&lt;span style=&quot;color: rgb(63, 63, 63); background-color: transparent;&quot;&gt;&lt;span style=&quot;color: rgb(63, 63, 63);&quot;&gt;&lt;span style=&quot;color: rgb(63, 63, 63);&quot;&gt;check_bedrooms&lt;/span&gt;&lt;br&gt;&lt;/span&gt;&lt;/span&gt;&lt;/div&gt;&lt;div&gt;&lt;span style=&quot;color: rgb(63, 63, 63); background-color: transparent;&quot;&gt;&lt;span style=&quot;color: rgb(63, 63, 63);&quot;&gt;&lt;span style=&quot;color: rgb(63, 63, 63);&quot;&gt;&lt;span style=&quot;color: rgb(63, 63, 63);&quot;&gt;check_unit_density&lt;/span&gt;&lt;br&gt;&lt;/span&gt;&lt;/span&gt;&lt;/span&gt;&lt;/div&gt;&lt;div&gt;&lt;span style=&quot;color: rgb(63, 63, 63); background-color: transparent;&quot;&gt;&lt;span style=&quot;color: rgb(63, 63, 63);&quot;&gt;&lt;span style=&quot;color: rgb(63, 63, 63);&quot;&gt;&lt;span style=&quot;color: rgb(63, 63, 63);&quot;&gt;&lt;span style=&quot;color: rgb(63, 63, 63);&quot;&gt;check_unit_size&lt;/span&gt;&lt;br&gt;&lt;/span&gt;&lt;/span&gt;&lt;/span&gt;&lt;/span&gt;&lt;/div&gt;" style="rounded=0;whiteSpace=wrap;html=1;" vertex="1" parent="1">
                    <mxGeometry x="54" y="264" width="120" height="99" as="geometry"/>
                </mxCell>
                <mxCell id="13" style="edgeStyle=none;html=1;entryX=0.5;entryY=0;entryDx=0;entryDy=0;" edge="1" parent="1" source="6" target="7">
                    <mxGeometry relative="1" as="geometry"/>
                </mxCell>
                <mxCell id="6" value="find_district_idx" style="rounded=0;whiteSpace=wrap;html=1;" vertex="1" parent="1">
                    <mxGeometry x="54" y="412.5" width="120" height="25" as="geometry"/>
                </mxCell>
                <mxCell id="14" style="edgeStyle=none;html=1;entryX=0.5;entryY=0;entryDx=0;entryDy=0;" edge="1" parent="1" source="7" target="8">
                    <mxGeometry relative="1" as="geometry"/>
                </mxCell>
                <mxCell id="7" value="check_far&lt;div&gt;check_lot_corveage&lt;/div&gt;" style="rounded=0;whiteSpace=wrap;html=1;" vertex="1" parent="1">
                    <mxGeometry x="54" y="494" width="120" height="35" as="geometry"/>
                </mxCell>
                <mxCell id="15" style="edgeStyle=none;html=1;entryX=0.5;entryY=0;entryDx=0;entryDy=0;" edge="1" parent="1" source="8" target="9">
                    <mxGeometry relative="1" as="geometry"/>
                </mxCell>
                <mxCell id="8" value="add_setbacks" style="rounded=0;whiteSpace=wrap;html=1;" vertex="1" parent="1">
                    <mxGeometry x="54" y="595" width="120" height="25" as="geometry"/>
                </mxCell>
                <mxCell id="16" style="edgeStyle=none;html=1;entryX=0.5;entryY=0;entryDx=0;entryDy=0;" edge="1" parent="1" source="9" target="10">
                    <mxGeometry relative="1" as="geometry"/>
                </mxCell>
                <mxCell id="9" value="get_buildable_area" style="rounded=0;whiteSpace=wrap;html=1;" vertex="1" parent="1">
                    <mxGeometry x="54" y="646" width="120" height="25" as="geometry"/>
                </mxCell>
                <mxCell id="10" value="check_footprint" style="rounded=0;whiteSpace=wrap;html=1;" vertex="1" parent="1">
                    <mxGeometry x="54" y="738.5" width="120" height="25" as="geometry"/>
                </mxCell>
                <mxCell id="17" value="" style="rounded=0;whiteSpace=wrap;html=1;fillColor=none;dashed=1;" vertex="1" parent="1">
                    <mxGeometry x="49" y="241" width="365" height="305" as="geometry"/>
                </mxCell>
                <mxCell id="22" value="" style="group" vertex="1" connectable="0" parent="1">
                    <mxGeometry x="489" y="348" width="97" height="102" as="geometry"/>
                </mxCell>
                <mxCell id="19" value="find_bldg_type" style="rounded=0;whiteSpace=wrap;html=1;" vertex="1" parent="22">
                    <mxGeometry width="97" height="29" as="geometry"/>
                </mxCell>
                <mxCell id="20" value="get_zoning_req" style="rounded=0;whiteSpace=wrap;html=1;" vertex="1" parent="22">
                    <mxGeometry y="73" width="97" height="29" as="geometry"/>
                </mxCell>
                <mxCell id="21" value="" style="shape=cross;whiteSpace=wrap;html=1;size=0.25180341932508554;" vertex="1" parent="22">
                    <mxGeometry x="33" y="37" width="30" height="30" as="geometry"/>
                </mxCell>
                <mxCell id="23" value="" style="shape=curlyBracket;whiteSpace=wrap;html=1;rounded=1;flipH=1;labelPosition=right;verticalLabelPosition=middle;align=left;verticalAlign=middle;rotation=-180;" vertex="1" parent="1">
                    <mxGeometry x="458" y="356" width="31" height="83" as="geometry"/>
                </mxCell>
                <mxCell id="27" value="&lt;p style=&quot;&quot; data-pm-slice=&quot;0 0 []&quot;&gt;&lt;font style=&quot;font-size: 10px;&quot; face=&quot;Helvetica&quot;&gt;This is the automated step that generates a standardized one-dimensional dataFrame with all necessary calculations based on our designed key datasets for each building type.&lt;/font&gt;&lt;/p&gt;" style="text;html=1;align=left;verticalAlign=middle;whiteSpace=wrap;rounded=0;" vertex="1" parent="1">
                    <mxGeometry x="207" y="179" width="398" height="30" as="geometry"/>
                </mxCell>
                <mxCell id="28" value="&lt;p data-pm-slice=&quot;0 0 []&quot;&gt;&lt;font style=&quot;font-size: 10px;&quot;&gt;Uitilizing different Check Functions to filter out whether our tidybuilding can be allowed to be built in the specific district, which is a crucial step for achieving our following steps.&amp;nbsp;&amp;nbsp;&lt;/font&gt;&lt;/p&gt;&lt;p data-pm-slice=&quot;0 0 []&quot;&gt;&lt;font style=&quot;font-size: 10px;&quot;&gt;&lt;font style=&quot;&quot;&gt;The find_district idx help us to&amp;nbsp;&lt;/font&gt;&lt;span style=&quot;background-color: transparent;&quot;&gt;determine which zoning district a given parcel belongs to.&lt;/span&gt;&lt;/font&gt;&lt;/p&gt;&lt;p data-pm-slice=&quot;0 0 []&quot;&gt;&lt;font style=&quot;font-size: 10px;&quot;&gt;&lt;span style=&quot;background-color: transparent;&quot;&gt;The &lt;/span&gt;&lt;span style=&quot;background-color: transparent;&quot; data-end=&quot;14&quot; data-start=&quot;4&quot;&gt;reason&lt;/span&gt;&lt;span style=&quot;background-color: transparent;&quot;&gt; we split the checks into two parts is due to differences in input parameters. The first part only requires tidybuilding and tidyzoning, but the second psrt also requires tidyparcel, since these constraints depend on parcel-specific area attributes.&lt;/span&gt;&lt;/font&gt;&lt;/p&gt;" style="text;html=1;align=left;verticalAlign=middle;whiteSpace=wrap;rounded=0;" vertex="1" parent="1">
                    <mxGeometry x="191" y="290" width="214" height="207" as="geometry"/>
                </mxCell>
                <mxCell id="30" value="&lt;p style=&quot;&quot; data-pm-slice=&quot;0 0 []&quot;&gt;&lt;span style=&quot;font-size: 10px;&quot;&gt;These two functions work together to assign specific setback values and units to each parcel edge and subsequently generate the buildable polygon within each parcel.&lt;/span&gt;&lt;br&gt;&lt;/p&gt;" style="text;html=1;align=left;verticalAlign=middle;whiteSpace=wrap;rounded=0;" vertex="1" parent="1">
                    <mxGeometry x="207" y="613" width="398" height="30" as="geometry"/>
                </mxCell>
                <mxCell id="31" value="&lt;p style=&quot;&quot; data-pm-slice=&quot;0 0 []&quot;&gt;&lt;span style=&quot;font-size: 10px;&quot;&gt;the last function help us to check whether our designed tidybuilding&amp;nbsp; can fit into our multiple buildable polygons.&lt;/span&gt;&lt;br&gt;&lt;/p&gt;" style="text;html=1;align=left;verticalAlign=middle;whiteSpace=wrap;rounded=0;" vertex="1" parent="1">
                    <mxGeometry x="207" y="736" width="408" height="30" as="geometry"/>
                </mxCell>
                <mxCell id="32" value="" style="rounded=0;whiteSpace=wrap;html=1;fillColor=none;dashed=1;dashPattern=1 2;" vertex="1" parent="1">
                    <mxGeometry x="35" y="228" width="598" height="553" as="geometry"/>
                </mxCell>
                <mxCell id="33" value="&lt;font face=&quot;Verdana&quot; style=&quot;font-size: 14px;&quot;&gt;Process Pipeline:&lt;/font&gt;&lt;div&gt;&lt;font face=&quot;Verdana&quot; style=&quot;font-size: 14px;&quot;&gt;&lt;b&gt;process_zoning_analysis&lt;/b&gt;&lt;/font&gt;&lt;/div&gt;" style="rounded=0;whiteSpace=wrap;html=1;rotation=-90;" vertex="1" parent="1">
                    <mxGeometry x="633" y="461" width="206" height="52" as="geometry"/>
                </mxCell>
                <mxCell id="34" value="" style="shape=flexArrow;endArrow=classic;html=1;" edge="1" parent="1">
                    <mxGeometry width="50" height="50" relative="1" as="geometry">
                        <mxPoint x="633" y="494" as="sourcePoint"/>
                        <mxPoint x="701" y="494" as="targetPoint"/>
                    </mxGeometry>
                </mxCell>
            </root>
        </mxGraphModel>
    </diagram>
</mxfile>